<svg xmlns="http://www.w3.org/2000/svg" xmlns:xlink="http://www.w3.org/1999/xlink" width="1152" zoomAndPan="magnify" viewBox="0 0 864 863.999991" height="1152" preserveAspectRatio="xMidYMid meet" version="1.0"><defs><clipPath id="e41bbcb353"><path d="M 348 636 L 519 636 L 519 863.78125 L 348 863.78125 Z M 348 636 " clip-rule="nonzero"/></clipPath><clipPath id="ae2ca76f2a"><path d="M 213 528 L 654.40625 528 L 654.40625 801 L 213 801 Z M 213 528 " clip-rule="nonzero"/></clipPath></defs><path fill="#f3f8f9" d="M 616.648438 128.773438 C 662.398438 128.773438 699.375 165.75 699.375 211.5 C 699.375 257.175781 662.398438 294.226562 616.648438 294.226562 C 570.976562 294.226562 533.925781 257.175781 533.925781 211.5 C 533.925781 165.75 570.976562 128.773438 616.648438 128.773438 Z M 95.773438 0 C 42.75 0 0 42.75 0 95.773438 L 0 394.125 C 120.675781 394.125 249 457.5 378.449219 528.449219 C 468.226562 492.226562 538.875 446.101562 634.726562 446.101562 C 720.75 446.101562 786.449219 483.226562 863.851562 516.976562 L 863.851562 721.5 L 864 721.5 L 864 95.773438 C 864 42.75 821.25 0 768.226562 0 L 95.773438 0 " fill-opacity="1" fill-rule="nonzero"/><path fill="#74cd8b" d="M 634.875 446.101562 C 539.023438 446.101562 455.023438 495.898438 365.25 532.050781 C 529.875 622.351562 709.5 721.425781 864 721.5 L 864 516.976562 C 786.601562 483.226562 720.898438 446.101562 634.875 446.101562 " fill-opacity="1" fill-rule="nonzero"/><path fill="#f7ea5f" d="M 699.375 211.425781 C 699.375 257.175781 662.324219 294.148438 616.648438 294.148438 C 570.976562 294.148438 533.925781 257.175781 533.925781 211.425781 C 533.925781 165.75 570.976562 128.699219 616.648438 128.699219 C 662.324219 128.699219 699.375 165.75 699.375 211.425781 " fill-opacity="1" fill-rule="nonzero"/><path fill="#95d9a5" d="M 0 394.125 L 0 768.226562 C 0 821.25 42.75 864 95.773438 864 L 768.226562 864 C 821.25 864 864 821.25 864 768.226562 L 864 721.5 C 588.074219 721.5 274.351562 394.125 0 394.125 " fill-opacity="1" fill-rule="nonzero"/><g clip-path="url(#e41bbcb353)"><path fill="#38b6ff" d="M 518.253906 721.617188 L 433.628906 636.992188 L 348.996094 721.617188 L 371.265625 743.890625 L 417.878906 697.285156 L 417.878906 863.992188 L 449.371094 863.992188 L 449.371094 697.285156 L 495.984375 743.890625 Z M 518.253906 721.617188 " fill-opacity="1" fill-rule="nonzero"/></g><g clip-path="url(#ae2ca76f2a)"><path fill="#ffffff" d="M 546.488281 801 L 491.386719 801 L 491.386719 769.503906 L 546.488281 769.503906 C 547.839844 769.511719 549.195312 769.480469 550.546875 769.414062 C 551.898438 769.351562 553.246094 769.246094 554.59375 769.109375 C 555.9375 768.972656 557.28125 768.800781 558.617188 768.589844 C 559.953125 768.378906 561.285156 768.136719 562.609375 767.855469 C 563.933594 767.574219 565.246094 767.257812 566.554688 766.910156 C 567.863281 766.558594 569.160156 766.171875 570.445312 765.753906 C 571.730469 765.335938 573.007812 764.878906 574.269531 764.394531 C 575.53125 763.90625 576.78125 763.386719 578.015625 762.832031 C 579.25 762.277344 580.46875 761.691406 581.671875 761.070312 C 582.875 760.453125 584.058594 759.800781 585.230469 759.117188 C 586.398438 758.4375 587.546875 757.722656 588.679688 756.980469 C 589.808594 756.234375 590.917969 755.460938 592.007812 754.660156 C 593.097656 753.855469 594.164062 753.023438 595.210938 752.164062 C 596.253906 751.304688 597.277344 750.417969 598.273438 749.503906 C 599.269531 748.589844 600.242188 747.648438 601.191406 746.683594 C 602.140625 745.71875 603.058594 744.726562 603.953125 743.710938 C 604.847656 742.695312 605.714844 741.65625 606.554688 740.59375 C 607.394531 739.535156 608.207031 738.449219 608.988281 737.347656 C 609.769531 736.242188 610.519531 735.117188 611.242188 733.972656 C 611.964844 732.828125 612.652344 731.664062 613.3125 730.480469 C 613.972656 729.300781 614.601562 728.101562 615.195312 726.886719 C 615.792969 725.671875 616.355469 724.441406 616.886719 723.195312 C 617.414062 721.953125 617.910156 720.691406 618.375 719.421875 C 618.835938 718.148438 619.265625 716.867188 619.660156 715.570312 C 620.054688 714.277344 620.414062 712.972656 620.738281 711.660156 C 621.0625 710.347656 621.355469 709.023438 621.609375 707.695312 C 621.863281 706.367188 622.082031 705.03125 622.265625 703.691406 C 622.449219 702.351562 622.597656 701.003906 622.707031 699.65625 C 622.820312 698.308594 622.894531 696.957031 622.933594 695.605469 C 622.972656 694.25 622.976562 692.898438 622.945312 691.546875 C 622.910156 690.191406 622.84375 688.84375 622.738281 687.492188 C 622.632812 686.144531 622.492188 684.796875 622.316406 683.457031 C 622.140625 682.113281 621.929688 680.777344 621.679688 679.449219 C 621.433594 678.117188 621.148438 676.792969 620.832031 675.480469 C 620.511719 674.164062 620.160156 672.859375 619.773438 671.5625 C 619.382812 670.265625 618.960938 668.980469 618.507812 667.707031 C 618.050781 666.433594 617.558594 665.171875 617.035156 663.921875 C 616.511719 662.675781 615.957031 661.441406 615.367188 660.222656 C 614.777344 659.007812 614.15625 657.804688 613.5 656.621094 C 612.847656 655.433594 612.164062 654.269531 611.449219 653.121094 C 610.730469 651.972656 609.988281 650.84375 609.210938 649.734375 C 608.433594 648.625 607.628906 647.539062 606.796875 646.472656 C 605.960938 645.40625 605.101562 644.363281 604.210938 643.34375 C 603.320312 642.324219 602.40625 641.328125 601.460938 640.355469 C 600.519531 639.386719 599.550781 638.441406 598.558594 637.519531 C 597.566406 636.601562 596.550781 635.710938 595.507812 634.84375 C 594.46875 633.980469 593.40625 633.140625 592.320312 632.335938 C 591.234375 631.527344 590.128906 630.746094 589 629.996094 C 587.875 629.246094 586.730469 628.527344 585.5625 627.839844 C 584.398438 627.152344 583.214844 626.496094 582.015625 625.871094 C 580.816406 625.246094 579.601562 624.652344 578.367188 624.089844 C 577.136719 623.53125 575.890625 623.003906 574.628906 622.507812 C 573.371094 622.015625 572.097656 621.554688 570.8125 621.128906 C 569.53125 620.703125 568.234375 620.3125 566.929688 619.953125 C 565.625 619.597656 564.308594 619.273438 562.988281 618.988281 C 561.664062 618.703125 560.335938 618.449219 559 618.234375 C 557.664062 618.015625 556.324219 617.835938 554.976562 617.691406 C 553.632812 617.546875 552.285156 617.4375 550.933594 617.367188 C 549.582031 617.292969 548.230469 617.257812 546.875 617.257812 C 545.523438 617.253906 544.171875 617.292969 542.820312 617.363281 C 541.46875 617.433594 540.117188 617.542969 538.773438 617.683594 C 537.425781 617.828125 536.085938 618.007812 534.75 618.222656 C 533.414062 618.4375 532.085938 618.6875 530.761719 618.972656 C 529.441406 619.261719 528.125 619.582031 526.820312 619.9375 C 525.984375 620.160156 525.140625 620.3125 524.28125 620.398438 C 523.421875 620.484375 522.5625 620.496094 521.699219 620.4375 C 520.839844 620.382812 519.988281 620.253906 519.148438 620.058594 C 518.304688 619.859375 517.488281 619.59375 516.691406 619.261719 C 515.894531 618.929688 515.128906 618.535156 514.398438 618.078125 C 513.664062 617.621094 512.976562 617.105469 512.328125 616.535156 C 511.683594 615.964844 511.085938 615.34375 510.539062 614.671875 C 509.996094 614.003906 509.507812 613.292969 509.082031 612.546875 C 507.753906 610.21875 506.339844 607.945312 504.839844 605.726562 C 503.339844 603.503906 501.753906 601.347656 500.089844 599.25 C 498.421875 597.152344 496.679688 595.121094 494.859375 593.15625 C 493.035156 591.191406 491.140625 589.296875 489.175781 587.480469 C 487.207031 585.660156 485.175781 583.917969 483.074219 582.253906 C 480.976562 580.589844 478.816406 579.007812 476.59375 577.511719 C 474.375 576.011719 472.097656 574.601562 469.769531 573.277344 C 467.441406 571.953125 465.066406 570.71875 462.640625 569.574219 C 460.21875 568.433594 457.753906 567.386719 455.25 566.429688 C 452.746094 565.476562 450.210938 564.621094 447.640625 563.859375 C 445.074219 563.101562 442.480469 562.441406 439.859375 561.878906 C 437.238281 561.320312 434.601562 560.859375 431.945312 560.5 C 429.292969 560.140625 426.628906 559.882812 423.953125 559.730469 C 421.277344 559.574219 418.601562 559.523438 415.921875 559.570312 C 413.242188 559.621094 410.570312 559.773438 407.902344 560.027344 C 405.238281 560.28125 402.582031 560.640625 399.945312 561.097656 C 397.304688 561.554688 394.6875 562.113281 392.089844 562.769531 C 389.492188 563.429688 386.921875 564.183594 384.382812 565.039062 C 381.84375 565.894531 379.34375 566.84375 376.875 567.890625 C 374.410156 568.9375 371.988281 570.078125 369.609375 571.308594 C 367.230469 572.542969 364.902344 573.863281 362.621094 575.273438 C 360.34375 576.683594 358.125 578.175781 355.960938 579.757812 C 353.796875 581.339844 351.695312 583 349.660156 584.738281 C 347.625 586.480469 345.65625 588.296875 343.761719 590.1875 C 341.863281 592.078125 340.039062 594.042969 338.292969 596.074219 C 336.546875 598.101562 334.878906 600.199219 333.292969 602.355469 C 331.707031 604.515625 330.203125 606.730469 328.789062 609.003906 C 327.371094 611.277344 326.042969 613.605469 324.804688 615.980469 C 323.5625 618.355469 322.417969 620.773438 321.363281 623.238281 C 320.308594 625.699219 319.351562 628.199219 318.488281 630.734375 C 317.625 633.273438 316.863281 635.839844 316.195312 638.433594 C 315.53125 641.027344 314.964844 643.644531 314.5 646.285156 C 314.339844 647.183594 314.105469 648.058594 313.796875 648.917969 C 313.484375 649.773438 313.101562 650.597656 312.648438 651.390625 C 312.195312 652.179688 311.675781 652.925781 311.09375 653.628906 C 310.511719 654.328125 309.871094 654.972656 309.175781 655.5625 C 308.480469 656.152344 307.738281 656.679688 306.953125 657.140625 C 306.164062 657.601562 305.34375 657.992188 304.492188 658.308594 C 303.636719 658.628906 302.761719 658.871094 301.863281 659.035156 C 300.96875 659.203125 300.0625 659.289062 299.152344 659.300781 C 297.347656 659.308594 295.546875 659.410156 293.753906 659.597656 C 291.960938 659.785156 290.179688 660.058594 288.410156 660.421875 C 286.644531 660.785156 284.898438 661.230469 283.175781 661.765625 C 281.453125 662.300781 279.757812 662.917969 278.097656 663.617188 C 276.433594 664.316406 274.808594 665.097656 273.222656 665.957031 C 271.636719 666.816406 270.097656 667.75 268.605469 668.761719 C 267.109375 669.773438 265.667969 670.855469 264.28125 672.007812 C 262.890625 673.160156 261.5625 674.378906 260.296875 675.660156 C 259.027344 676.945312 257.824219 678.285156 256.6875 679.6875 C 255.550781 681.085938 254.488281 682.542969 253.492188 684.046875 C 252.5 685.550781 251.582031 687.101562 250.742188 688.699219 C 249.898438 690.292969 249.136719 691.929688 248.457031 693.597656 C 247.777344 695.269531 247.179688 696.96875 246.664062 698.699219 C 246.148438 700.425781 245.722656 702.175781 245.378906 703.949219 C 245.039062 705.71875 244.785156 707.503906 244.617188 709.300781 C 244.449219 711.097656 244.371094 712.898438 244.382812 714.699219 C 244.390625 716.503906 244.488281 718.304688 244.675781 720.097656 C 244.863281 721.894531 245.136719 723.671875 245.5 725.441406 C 245.859375 727.207031 246.308594 728.953125 246.839844 730.675781 C 247.371094 732.402344 247.988281 734.09375 248.6875 735.757812 C 249.386719 737.421875 250.167969 739.046875 251.027344 740.632812 C 251.882812 742.21875 252.820312 743.757812 253.828125 745.253906 C 254.839844 746.746094 255.921875 748.191406 257.074219 749.578125 C 258.222656 750.964844 259.441406 752.296875 260.722656 753.5625 C 262.007812 754.832031 263.347656 756.035156 264.746094 757.171875 C 266.148438 758.308594 267.601562 759.375 269.105469 760.371094 C 270.613281 761.367188 272.160156 762.285156 273.757812 763.125 C 275.351562 763.96875 276.984375 764.730469 278.65625 765.410156 C 280.324219 766.09375 282.027344 766.691406 283.753906 767.207031 C 285.484375 767.722656 287.234375 768.152344 289.003906 768.492188 C 290.777344 768.835938 292.558594 769.09375 294.355469 769.261719 C 296.152344 769.429688 297.953125 769.507812 299.757812 769.5 L 375.878906 769.5 L 375.878906 800.992188 L 299.761719 800.992188 C 298.417969 800.992188 297.070312 800.960938 295.726562 800.898438 C 294.382812 800.835938 293.039062 800.742188 291.699219 800.617188 C 290.355469 800.492188 289.019531 800.335938 287.6875 800.148438 C 286.355469 799.960938 285.027344 799.742188 283.703125 799.496094 C 282.378906 799.246094 281.0625 798.964844 279.753906 798.65625 C 278.445312 798.34375 277.140625 798.003906 275.847656 797.632812 C 274.554688 797.261719 273.269531 796.859375 271.992188 796.425781 C 270.71875 795.996094 269.453125 795.535156 268.199219 795.046875 C 266.945312 794.554688 265.703125 794.035156 264.472656 793.488281 C 263.246094 792.9375 262.027344 792.363281 260.824219 791.757812 C 259.621094 791.152344 258.433594 790.519531 257.261719 789.859375 C 256.089844 789.199219 254.929688 788.511719 253.789062 787.796875 C 252.648438 787.082031 251.523438 786.34375 250.417969 785.574219 C 249.3125 784.808594 248.222656 784.015625 247.152344 783.199219 C 246.082031 782.382812 245.035156 781.539062 244.003906 780.675781 C 242.972656 779.808594 241.960938 778.917969 240.972656 778.003906 C 239.984375 777.089844 239.019531 776.15625 238.074219 775.195312 C 237.128906 774.238281 236.203125 773.257812 235.304688 772.253906 C 234.40625 771.253906 233.53125 770.230469 232.679688 769.1875 C 231.824219 768.148438 231 767.085938 230.195312 766.003906 C 229.394531 764.921875 228.617188 763.824219 227.867188 762.707031 C 227.113281 761.589844 226.390625 760.453125 225.691406 759.304688 C 224.992188 758.152344 224.324219 756.984375 223.679688 755.804688 C 223.035156 754.621094 222.417969 753.425781 221.832031 752.214844 C 221.242188 751.003906 220.683594 749.777344 220.152344 748.539062 C 219.621094 747.304688 219.121094 746.054688 218.648438 744.792969 C 218.175781 743.535156 217.730469 742.261719 217.316406 740.980469 C 216.902344 739.699219 216.519531 738.410156 216.167969 737.109375 C 215.8125 735.8125 215.492188 734.503906 215.199219 733.191406 C 214.90625 731.875 214.644531 730.554688 214.414062 729.230469 C 214.183594 727.902344 213.984375 726.574219 213.816406 725.238281 C 213.644531 723.902344 213.507812 722.5625 213.402344 721.21875 C 213.296875 719.878906 213.222656 718.535156 213.179688 717.1875 C 213.132812 715.84375 213.121094 714.496094 213.140625 713.152344 C 213.160156 711.804688 213.210938 710.460938 213.292969 709.117188 C 213.375 707.773438 213.488281 706.429688 213.632812 705.09375 C 213.777344 703.753906 213.953125 702.417969 214.160156 701.089844 C 214.367188 699.757812 214.605469 698.433594 214.871094 697.113281 C 215.140625 695.796875 215.441406 694.484375 215.769531 693.175781 C 216.097656 691.871094 216.460938 690.574219 216.847656 689.285156 C 217.238281 687.996094 217.660156 686.71875 218.109375 685.449219 C 218.558594 684.179688 219.039062 682.921875 219.546875 681.675781 C 220.054688 680.429688 220.59375 679.195312 221.160156 677.976562 C 221.722656 676.753906 222.320312 675.546875 222.941406 674.351562 C 223.5625 673.15625 224.210938 671.980469 224.890625 670.816406 C 225.566406 669.652344 226.273438 668.503906 227.003906 667.375 C 227.734375 666.242188 228.488281 665.128906 229.273438 664.035156 C 230.054688 662.9375 230.863281 661.863281 231.695312 660.804688 C 232.527344 659.746094 233.386719 658.710938 234.265625 657.691406 C 235.148438 656.675781 236.054688 655.675781 236.980469 654.703125 C 237.910156 653.726562 238.859375 652.773438 239.832031 651.839844 C 240.804688 650.910156 241.796875 650.003906 242.8125 649.117188 C 243.824219 648.230469 244.859375 647.371094 245.914062 646.535156 C 246.96875 645.699219 248.042969 644.886719 249.136719 644.097656 C 250.230469 643.3125 251.339844 642.550781 252.46875 641.816406 C 253.59375 641.082031 254.738281 640.375 255.902344 639.691406 C 257.0625 639.011719 258.238281 638.355469 259.429688 637.730469 C 260.621094 637.105469 261.828125 636.503906 263.046875 635.933594 C 264.265625 635.363281 265.5 634.824219 266.742188 634.308594 C 267.988281 633.796875 269.246094 633.3125 270.511719 632.859375 C 271.777344 632.40625 273.054688 631.980469 274.34375 631.585938 C 275.628906 631.191406 276.925781 630.824219 278.230469 630.492188 C 279.535156 630.15625 280.84375 629.855469 282.164062 629.582031 C 283.480469 629.308594 284.804688 629.066406 286.136719 628.851562 C 286.980469 625.730469 287.933594 622.644531 288.996094 619.589844 C 290.0625 616.535156 291.234375 613.523438 292.511719 610.550781 C 293.789062 607.582031 295.171875 604.660156 296.65625 601.789062 C 298.140625 598.914062 299.726562 596.097656 301.414062 593.339844 C 303.097656 590.578125 304.882812 587.882812 306.757812 585.25 C 308.636719 582.617188 310.605469 580.054688 312.664062 577.558594 C 314.726562 575.066406 316.871094 572.652344 319.101562 570.308594 C 321.335938 567.96875 323.648438 565.710938 326.039062 563.535156 C 328.429688 561.359375 330.898438 559.269531 333.4375 557.269531 C 335.980469 555.269531 338.585938 553.359375 341.265625 551.546875 C 343.941406 549.730469 346.679688 548.011719 349.476562 546.390625 C 352.273438 544.769531 355.128906 543.25 358.035156 541.832031 C 360.941406 540.414062 363.894531 539.101562 366.894531 537.894531 C 369.894531 536.6875 372.933594 535.585938 376.011719 534.59375 C 379.089844 533.601562 382.199219 532.722656 385.339844 531.949219 C 388.480469 531.179688 391.644531 530.523438 394.832031 529.976562 C 398.019531 529.429688 401.222656 529 404.441406 528.679688 C 407.660156 528.363281 410.886719 528.160156 414.117188 528.070312 C 417.351562 527.980469 420.582031 528.007812 423.8125 528.148438 C 427.042969 528.289062 430.265625 528.546875 433.480469 528.914062 C 436.691406 529.285156 439.886719 529.769531 443.066406 530.367188 C 446.246094 530.964844 449.398438 531.671875 452.523438 532.496094 C 455.652344 533.316406 458.75 534.246094 461.808594 535.289062 C 464.871094 536.332031 467.890625 537.480469 470.871094 538.734375 C 473.851562 539.992188 476.785156 541.351562 479.667969 542.816406 C 482.550781 544.28125 485.378906 545.847656 488.148438 547.511719 C 490.921875 549.179688 493.632812 550.941406 496.277344 552.800781 C 498.925781 554.65625 501.503906 556.609375 504.011719 558.648438 C 506.519531 560.691406 508.949219 562.820312 511.308594 565.035156 C 513.664062 567.25 515.9375 569.542969 518.132812 571.921875 C 520.328125 574.296875 522.433594 576.75 524.453125 579.273438 C 526.472656 581.800781 528.398438 584.394531 530.234375 587.058594 C 535.617188 586.203125 541.035156 585.773438 546.488281 585.769531 C 605.828125 585.769531 654.105469 634.039062 654.105469 693.378906 C 654.105469 752.71875 605.828125 801 546.488281 801 Z M 546.488281 801 " fill-opacity="1" fill-rule="nonzero"/></g></svg>